<?xml version="1.0" standalone="no"?>
<!DOCTYPE svg PUBLIC "-//W3C//DTD SVG 20010904//EN"
 "http://www.w3.org/TR/2001/REC-SVG-20010904/DTD/svg10.dtd">
<svg version="1.0" xmlns="http://www.w3.org/2000/svg"
 width="512.000000pt" height="512.000000pt" viewBox="0 0 512.000000 512.000000"
 preserveAspectRatio="xMidYMid meet">

<g transform="translate(0.000000,512.000000) scale(0.100000,-0.100000)"
fill="#000000" stroke="none">
<path d="M3135 4308 c-56 -18 -113 -72 -357 -341 l-243 -269 -60 6 c-33 3
-120 22 -194 41 -74 19 -141 35 -150 35 -32 0 -667 -412 -889 -577 -231 -171
-248 -195 -664 -923 -238 -417 -248 -437 -248 -488 0 -66 21 -116 68 -165 54
-56 112 -84 233 -111 l26 -6 -133 -262 c-73 -145 -133 -270 -134 -279 0 -29
27 -44 56 -31 43 20 758 474 785 499 14 12 34 23 46 23 17 0 22 -8 27 -53 14
-102 62 -178 141 -220 31 -17 58 -22 115 -22 94 0 151 24 215 91 l45 48 43
-42 c23 -22 69 -54 102 -69 53 -25 71 -28 160 -28 88 0 107 3 158 27 32 15 77
43 101 62 l42 35 55 -20 c158 -61 312 -95 492 -109 191 -14 360 5 593 69 40
11 126 22 195 26 l124 7 18 -40 c23 -51 93 -115 145 -130 26 -8 137 -12 334
-12 345 0 362 3 431 80 24 26 49 66 55 88 17 57 17 1927 0 1984 -6 22 -31 62
-55 88 -69 77 -86 80 -431 80 -202 0 -308 -4 -336 -12 -55 -16 -138 -99 -154
-154 -7 -23 -12 -58 -12 -78 l0 -36 -77 0 -76 0 -151 98 c-153 100 -338 212
-414 251 -23 12 -42 26 -42 31 0 5 77 94 171 197 99 108 180 206 191 231 83
186 -51 394 -252 391 -36 -1 -79 -5 -95 -11z m162 -168 c43 -26 62 -85 42
-134 -8 -21 -317 -367 -757 -850 l-744 -816 -154 0 c-86 0 -154 4 -154 9 0 10
1542 1708 1610 1774 33 31 46 37 82 37 25 0 56 -8 75 -20z m-1025 -557 c65
-16 118 -32 118 -36 0 -4 -257 -290 -571 -635 l-572 -627 -71 -18 c-156 -38
-263 -112 -313 -215 -23 -47 -28 -70 -28 -139 -1 -60 -5 -87 -17 -100 -9 -10
-30 -47 -48 -82 l-32 -64 -57 6 c-103 9 -191 60 -191 110 0 30 500 904 610
1067 64 95 163 177 449 374 120 83 591 386 601 386 3 0 58 -12 122 -27z m842
-270 c132 -74 281 -166 437 -269 l125 -84 102 0 102 0 0 -769 0 -768 -122 -7
c-126 -7 -173 -15 -340 -59 -368 -98 -857 -10 -1174 210 l-69 48 -505 5 -505
5 -44 25 c-36 20 -51 38 -79 92 -18 37 -39 96 -45 131 -10 58 -9 67 12 110 26
53 70 84 166 117 55 19 84 20 575 20 l517 0 59 38 c119 78 206 199 234 324 17
77 8 236 -18 312 l-20 59 235 259 c130 142 240 258 246 258 5 0 55 -26 111
-57z m1581 -98 l25 -24 0 -951 0 -951 -25 -24 -24 -25 -291 0 -291 0 -24 25
-25 24 0 951 0 951 25 24 24 25 291 0 291 0 24 -25z m-2285 -612 c0 -124 -44
-217 -137 -288 l-46 -35 -114 0 -114 0 197 216 c139 152 200 211 205 202 5 -7
9 -50 9 -95z m-1478 -1068 c28 -25 55 -45 60 -45 5 0 8 -4 6 -10 -3 -10 -251
-169 -257 -164 -4 3 131 264 137 264 2 0 27 -20 54 -45z m778 -82 c0 -5 -10
-26 -23 -48 -57 -101 -175 -115 -211 -23 -32 78 -32 78 109 78 69 0 125 -3
125 -7z m474 -40 c59 -36 73 -49 65 -59 -32 -39 -161 -44 -233 -9 -34 16 -96
85 -96 107 0 4 42 8 94 8 l94 0 76 -47z"/>
</g>
</svg>
